<svg id="check-circle" xmlns="http://www.w3.org/2000/svg" width="25" height="25" viewBox="0 0 25 25">
  <g id="Group_153" data-name="Group 153">
    <path id="Path_183" data-name="Path 183" d="M12.5,23.438A10.938,10.938,0,1,1,23.438,12.5,10.938,10.938,0,0,1,12.5,23.438ZM12.5,25A12.5,12.5,0,1,0,0,12.5,12.5,12.5,0,0,0,12.5,25Z" fill="#0d7606"/>
    <path id="Path_184" data-name="Path 184" d="M60.171,57.292a.368.368,0,0,0-.031.034L54.714,64.24l-3.27-3.272a1.172,1.172,0,0,0-1.656,1.656l4.134,4.136a1.172,1.172,0,0,0,1.686-.031l6.238-7.8a1.172,1.172,0,1,0-1.674-1.641Z" transform="translate(-43.031 -49.526)" fill="#0d7606"/>
  </g>
</svg>
